<svg width="20" height="20" viewBox="0 0 20 20" fill="none" xmlns="http://www.w3.org/2000/svg">
<path d="M15.3572 13.0228C14.721 13.0228 14.1339 13.2377 13.6741 13.5967L9.04912 10.3749C9.12656 9.96556 9.12656 9.54616 9.04912 9.13686L13.6741 5.91504C14.1339 6.27398 14.721 6.48891 15.3572 6.48891C16.8348 6.48891 18.0357 5.33258 18.0357 3.90974C18.0357 2.4869 16.8348 1.33057 15.3572 1.33057C13.8795 1.33057 12.6786 2.4869 12.6786 3.90974C12.6786 4.15906 12.7143 4.39763 12.7835 4.62546L8.39063 7.68822C7.73885 6.85644 6.70313 6.31696 5.53572 6.31696C3.56251 6.31696 1.96429 7.85587 1.96429 9.75586C1.96429 11.6558 3.56251 13.1948 5.53572 13.1948C6.70313 13.1948 7.73885 12.6553 8.39063 11.8235L12.7835 14.8863C12.7143 15.1141 12.6786 15.3548 12.6786 15.602C12.6786 17.0248 13.8795 18.1812 15.3572 18.1812C16.8348 18.1812 18.0357 17.0248 18.0357 15.602C18.0357 14.1791 16.8348 13.0228 15.3572 13.0228ZM15.3572 2.7921C15.9978 2.7921 16.5179 3.29289 16.5179 3.90974C16.5179 4.52659 15.9978 5.02738 15.3572 5.02738C14.7165 5.02738 14.1964 4.52659 14.1964 3.90974C14.1964 3.29289 14.7165 2.7921 15.3572 2.7921ZM5.53572 11.6473C4.45313 11.6473 3.57144 10.7983 3.57144 9.75586C3.57144 8.71344 4.45313 7.86447 5.53572 7.86447C6.61831 7.86447 7.50001 8.71344 7.50001 9.75586C7.50001 10.7983 6.61831 11.6473 5.53572 11.6473ZM15.3572 16.7196C14.7165 16.7196 14.1964 16.2188 14.1964 15.602C14.1964 14.9851 14.7165 14.4843 15.3572 14.4843C15.9978 14.4843 16.5179 14.9851 16.5179 15.602C16.5179 16.2188 15.9978 16.7196 15.3572 16.7196Z" fill="black"/>
</svg>
