<svg width="32" height="32" viewBox="0 0 32 32" fill="none" xmlns="http://www.w3.org/2000/svg">
<g clip-path="url(#clip0_15_1559)">
<path d="M28.2283 26.3179C28.2355 26.3071 28.2462 26.2964 28.2533 26.2857C30.5926 23.5036 31.9998 19.9179 31.9998 16C31.9998 12.0821 30.5926 8.49643 28.2569 5.71429C28.2498 5.70357 28.239 5.69643 28.2319 5.68571C28.1926 5.63929 28.1569 5.59643 28.1176 5.55357C28.1033 5.53571 28.089 5.52143 28.0748 5.50357L27.9283 5.33571L27.9248 5.33214C27.8712 5.27143 27.814 5.21071 27.7605 5.15L27.7569 5.14643C27.6426 5.025 27.5283 4.90357 27.4105 4.78571L27.4069 4.78214L27.2355 4.61071L27.2248 4.6C27.1712 4.54643 27.1176 4.49643 27.064 4.44643C27.0462 4.42857 27.0283 4.41071 27.0069 4.39286C26.9712 4.35714 26.9355 4.325 26.8998 4.29286C26.889 4.28214 26.8748 4.27143 26.864 4.25714C24.014 1.61429 20.1962 0 15.9998 0C11.8033 0 7.98547 1.61429 5.1319 4.25714C5.12118 4.26786 5.1069 4.27857 5.09618 4.29286C5.06047 4.325 5.02476 4.36071 4.98904 4.39643C4.97118 4.41429 4.95333 4.43214 4.9319 4.45C4.87833 4.5 4.82476 4.55357 4.77118 4.60357L4.76047 4.61429L4.58904 4.78571L4.58547 4.78929C4.46761 4.90714 4.35333 5.02857 4.23904 5.15L4.23547 5.15357C4.17833 5.21429 4.12476 5.275 4.07118 5.33571L4.06761 5.33929C4.01761 5.39286 3.96761 5.45 3.92118 5.50714C3.9069 5.525 3.89261 5.53929 3.87833 5.55714C3.83904 5.6 3.80333 5.64643 3.76404 5.68929C3.7569 5.7 3.74618 5.70714 3.73904 5.71786C1.4069 8.49643 -0.000244141 12.0821 -0.000244141 16C-0.000244141 19.9179 1.4069 23.5036 3.74261 26.2857C3.74976 26.2964 3.76047 26.3071 3.76761 26.3179L3.87833 26.45C3.89261 26.4679 3.9069 26.4821 3.92118 26.5L4.06761 26.6679C4.06761 26.6714 4.07118 26.6714 4.07118 26.675C4.12476 26.7357 4.17833 26.7964 4.23547 26.8536L4.23904 26.8571C4.35333 26.9786 4.46761 27.1 4.5819 27.2179L4.58547 27.2214C4.64261 27.2786 4.69618 27.3357 4.75333 27.3893L4.76404 27.4C4.8819 27.5179 5.00333 27.6321 5.12476 27.7429C7.98547 30.3857 11.8033 32 15.9998 32C20.1962 32 24.014 30.3857 26.8676 27.7429C26.9893 27.6313 27.1084 27.517 27.2248 27.4L27.2355 27.3893C27.2926 27.3321 27.3498 27.2786 27.4033 27.2214L27.4069 27.2179C27.5248 27.1 27.639 26.9786 27.7498 26.8571L27.7533 26.8536C27.8069 26.7929 27.864 26.7357 27.9176 26.675C27.9176 26.6714 27.9212 26.6714 27.9212 26.6679C27.9712 26.6143 28.0212 26.5571 28.0676 26.5C28.0819 26.4821 28.0962 26.4679 28.1105 26.45C28.1509 26.4069 28.1902 26.3629 28.2283 26.3179ZM28.3748 21.225C27.8819 22.3893 27.2319 23.4679 26.439 24.4464C25.5461 23.6747 24.5698 23.0051 23.5283 22.45C23.9426 20.775 24.1998 18.9357 24.2676 17H29.3926C29.2855 18.4607 28.9426 19.8786 28.3748 21.225ZM29.3926 15H24.2676C24.1998 13.0643 23.9426 11.225 23.5283 9.55C24.5748 8.99286 25.5498 8.32143 26.439 7.55357C28.1625 9.67491 29.1934 12.2741 29.3926 15ZM21.2248 3.625C22.6426 4.225 23.9319 5.05357 25.0676 6.09643C24.4079 6.65819 23.6977 7.15792 22.9462 7.58929C22.3855 5.98214 21.6676 4.58571 20.8319 3.46786C20.964 3.51786 21.0962 3.57143 21.2248 3.625ZM17.989 28.6464C17.6605 28.9036 17.3319 29.1 16.9998 29.2321V22.6071C18.4169 22.706 19.8104 23.0216 21.1319 23.5429C20.8355 24.4214 20.4926 25.2321 20.0962 25.9643C19.4748 27.1214 18.7462 28.0464 17.989 28.6464ZM20.0962 6.03571C20.489 6.77143 20.8355 7.58214 21.1319 8.45714C19.8104 8.97842 18.4169 9.29399 16.9998 9.39286V2.77143C17.3283 2.90357 17.6605 3.09643 17.989 3.35714C18.7462 3.95357 19.4748 4.87857 20.0962 6.03571ZM16.9998 20.6036V17H22.2676C22.2105 18.5786 22.014 20.1107 21.6855 21.5643L21.6748 21.6071C20.1759 21.0388 18.5998 20.7004 16.9998 20.6036ZM16.9998 15V11.3964C18.6355 11.2964 20.2069 10.95 21.6748 10.3929L21.6855 10.4357C22.014 11.8893 22.2105 13.4179 22.2676 15H16.9998ZM14.9998 17V20.6036C13.364 20.7036 11.7926 21.05 10.3248 21.6071L10.314 21.5643C9.98547 20.1107 9.78904 18.5821 9.7319 17H14.9998ZM9.7319 15C9.78904 13.4214 9.98547 11.8893 10.314 10.4357L10.3248 10.3929C11.7926 10.95 13.3605 11.2964 14.9998 11.3964V15H9.7319ZM14.9998 22.6071V29.2286C14.6712 29.0964 14.339 28.9036 14.0105 28.6429C13.2533 28.0464 12.5212 27.1179 11.8998 25.9607C11.5069 25.225 11.1605 24.4143 10.864 23.5393C12.1926 23.0179 13.5748 22.7071 14.9998 22.6071ZM14.9998 9.39286C13.5826 9.29399 12.1891 8.97842 10.8676 8.45714C11.164 7.57857 11.5069 6.76786 11.9033 6.03571C12.5248 4.87857 13.2533 3.95 14.014 3.35357C14.3426 3.09643 14.6712 2.9 15.0033 2.76786V9.39286H14.9998ZM10.7748 3.625C10.9069 3.57143 11.0355 3.51786 11.1676 3.46786C10.3319 4.58571 9.61404 5.98214 9.05333 7.58929C8.30333 7.16071 7.59261 6.66071 6.9319 6.09643C8.06761 5.05357 9.3569 4.225 10.7748 3.625ZM3.62476 10.775C4.11761 9.61071 4.76761 8.53214 5.56047 7.55357C6.44976 8.32143 7.42476 8.99286 8.47119 9.55C8.0569 11.225 7.79976 13.0643 7.7319 15H2.6069C2.71404 13.5393 3.0569 12.1214 3.62476 10.775ZM2.6069 17H7.7319C7.79976 18.9357 8.0569 20.775 8.47119 22.45C7.42969 23.0051 6.4534 23.6747 5.56047 24.4464C3.837 22.3251 2.80607 19.7259 2.6069 17ZM10.7748 28.375C9.3569 27.775 8.06761 26.9464 6.9319 25.9036C7.59261 25.3393 8.30333 24.8429 9.05333 24.4107C9.61404 26.0179 10.3319 27.4143 11.1676 28.5321C11.0355 28.4821 10.9033 28.4286 10.7748 28.375ZM21.2248 28.375C21.0926 28.4286 20.964 28.4821 20.8319 28.5321C21.6676 27.4143 22.3855 26.0179 22.9462 24.4107C23.6962 24.8393 24.4069 25.3393 25.0676 25.9036C23.9382 26.9421 22.6382 27.7781 21.2248 28.375Z" fill="black"/>
</g>
<defs>
<clipPath id="clip0_15_1559">
<rect x="-0.000244141" width="32" height="32" rx="5" fill="white"/>
</clipPath>
</defs>
</svg>
