<svg width="32" height="32" viewBox="0 0 32 32" fill="none" xmlns="http://www.w3.org/2000/svg">
<path d="M30.6786 7.84287C30.1998 6.73443 29.5096 5.72997 28.6464 4.88573C27.7826 4.03896 26.7641 3.36605 25.6464 2.90358C24.4874 2.42213 23.2443 2.17569 21.9893 2.17858C20.2286 2.17858 18.5107 2.66073 17.0178 3.57144C16.6607 3.7893 16.3214 4.02858 16 4.2893C15.6786 4.02858 15.3393 3.7893 14.9821 3.57144C13.4893 2.66073 11.7714 2.17858 10.0107 2.17858C8.74284 2.17858 7.51427 2.42144 6.35355 2.90358C5.23213 3.36787 4.22141 4.03573 3.35355 4.88573C2.48926 5.72902 1.79883 6.73372 1.32141 7.84287C0.824983 8.99644 0.571411 10.2214 0.571411 11.4822C0.571411 12.6714 0.814268 13.9107 1.29641 15.1714C1.69998 16.225 2.27855 17.3179 3.01784 18.4214C4.18927 20.1679 5.79998 21.9893 7.79998 23.8357C11.1143 26.8964 14.3964 29.0107 14.5357 29.0964L15.3821 29.6393C15.7571 29.8786 16.2393 29.8786 16.6143 29.6393L17.4607 29.0964C17.6 29.0072 20.8786 26.8964 24.1964 23.8357C26.1964 21.9893 27.8071 20.1679 28.9786 18.4214C29.7178 17.3179 30.3 16.225 30.7 15.1714C31.1821 13.9107 31.425 12.6714 31.425 11.4822C31.4286 10.2214 31.175 8.99644 30.6786 7.84287ZM16 26.8143C16 26.8143 3.2857 18.6679 3.2857 11.4822C3.2857 7.84287 6.29641 4.89287 10.0107 4.89287C12.6214 4.89287 14.8857 6.35001 16 8.47858C17.1143 6.35001 19.3786 4.89287 21.9893 4.89287C25.7036 4.89287 28.7143 7.84287 28.7143 11.4822C28.7143 18.6679 16 26.8143 16 26.8143Z" fill="white"/>
</svg>
