<svg width="51" height="51" viewBox="0 0 51 51" fill="none" xmlns="http://www.w3.org/2000/svg">
<path d="M9.73888 36.8073C7.55013 34.4825 6.375 31.8752 6.375 27.6485C6.375 20.211 11.5961 13.5449 19.1887 10.249L21.0864 13.1773C13.9995 17.0108 12.614 21.9854 12.0615 25.1219C13.2026 24.5311 14.6965 24.325 16.1606 24.461C19.9941 24.8159 23.0159 27.963 23.0159 31.8752C23.0159 33.8477 22.2323 35.7395 20.8375 37.1343C19.4427 38.5291 17.5509 39.3127 15.5784 39.3127C13.2982 39.3127 11.118 38.2714 9.73888 36.8073ZM30.9889 36.8073C28.8001 34.4825 27.625 31.8752 27.625 27.6485C27.625 20.211 32.8461 13.5449 40.4388 10.249L42.3364 13.1773C35.2495 17.0108 33.864 21.9854 33.3115 25.1219C34.4526 24.5311 35.9465 24.325 37.4106 24.461C41.2441 24.8159 44.2659 27.963 44.2659 31.8752C44.2659 33.8477 43.4823 35.7395 42.0875 37.1343C40.6927 38.5291 38.8009 39.3127 36.8284 39.3127C34.5482 39.3127 32.368 38.2714 30.9889 36.8073Z" fill="#DFEAFC"/>
<path d="M20.3755 12.9997L19.0014 10.8793C11.756 14.1715 6.875 20.5825 6.875 27.6485C6.875 31.7546 8.00606 34.2374 10.1028 36.4644L20.3755 12.9997ZM20.3755 12.9997C17.0411 14.8936 14.9882 17.0516 13.6977 19.1489C12.3492 21.3405 11.8503 23.4385 11.5691 25.0352L11.3937 26.0306L12.2914 25.5659C13.3252 25.0307 14.717 24.8291 16.1144 24.9589L16.1145 24.9589C19.7023 25.291 22.5159 28.2327 22.5159 31.8752C22.5159 33.7151 21.785 35.4797 20.4839 36.7807C19.1829 38.0817 17.4183 38.8127 15.5784 38.8127C13.4424 38.8127 11.392 37.833 10.1029 36.4645L20.3755 12.9997ZM40.2514 10.8793L41.6255 12.9997C38.291 14.8936 36.2382 17.0516 34.9477 19.1489C33.5992 21.3405 33.1003 23.4385 32.8191 25.0352L32.6437 26.0306L33.5414 25.5659C34.5752 25.0307 35.967 24.8291 37.3644 24.9589L37.3645 24.9589C40.9523 25.291 43.7659 28.2327 43.7659 31.8752C43.7659 33.7151 43.035 35.4797 41.7339 36.7807C40.4329 38.0817 38.6683 38.8127 36.8284 38.8127C34.6923 38.8127 32.6419 37.8329 31.3528 36.4644C29.2561 34.2374 28.125 31.7546 28.125 27.6485C28.125 20.5825 33.006 14.1715 40.2514 10.8793Z" stroke="black" stroke-opacity="0.5"/>
</svg>
