<svg width="26" height="24" viewBox="0 0 26 24" fill="none" xmlns="http://www.w3.org/2000/svg">
<path d="M24.494 8.48653L17.1263 7.41577L13.8328 0.738758C13.7428 0.555945 13.5949 0.407954 13.412 0.317999C12.9536 0.0916594 12.3964 0.280275 12.1672 0.738758L8.87364 7.41577L1.50601 8.48653C1.30289 8.51554 1.11717 8.6113 0.974985 8.75639C0.803088 8.93307 0.708365 9.17077 0.71163 9.41725C0.714894 9.66373 0.815879 9.89884 0.992395 10.0709L6.32298 15.268L5.0636 22.6066C5.03407 22.7773 5.05296 22.9529 5.11813 23.1134C5.1833 23.2739 5.29215 23.413 5.43233 23.5148C5.5725 23.6166 5.7384 23.6771 5.91121 23.6894C6.08402 23.7018 6.25682 23.6654 6.41003 23.5845L13 20.1198L19.5899 23.5845C19.7698 23.6803 19.9788 23.7122 20.179 23.6774C20.6839 23.5903 21.0234 23.1115 20.9364 22.6066L19.677 15.268L25.0076 10.0709C25.1527 9.92871 25.2484 9.743 25.2774 9.53987C25.3558 9.03206 25.0018 8.56197 24.494 8.48653Z" fill="black"/>
</svg>
