<svg width="32" height="32" viewBox="0 0 32 32" fill="none" xmlns="http://www.w3.org/2000/svg">
<path d="M30.2001 28.2322L20.9251 18.9572C22.3644 17.0964 23.1429 14.8214 23.1429 12.4286C23.1429 9.56429 22.0251 6.87858 20.0036 4.85358C17.9822 2.82858 15.2894 1.71429 12.4286 1.71429C9.56793 1.71429 6.87507 2.83215 4.85364 4.85358C2.82864 6.87501 1.71436 9.56429 1.71436 12.4286C1.71436 15.2893 2.83221 17.9822 4.85364 20.0036C6.87507 22.0286 9.56436 23.1429 12.4286 23.1429C14.8215 23.1429 17.0929 22.3643 18.9536 20.9286L28.2286 30.2C28.2558 30.2272 28.2881 30.2488 28.3237 30.2635C28.3592 30.2783 28.3973 30.2858 28.4358 30.2858C28.4743 30.2858 28.5124 30.2783 28.5479 30.2635C28.5834 30.2488 28.6157 30.2272 28.6429 30.2L30.2001 28.6464C30.2273 28.6192 30.2489 28.587 30.2636 28.5514C30.2783 28.5159 30.2859 28.4778 30.2859 28.4393C30.2859 28.4008 30.2783 28.3627 30.2636 28.3272C30.2489 28.2916 30.2273 28.2593 30.2001 28.2322ZM18.0858 18.0857C16.5715 19.5964 14.5644 20.4286 12.4286 20.4286C10.2929 20.4286 8.28578 19.5964 6.7715 18.0857C5.26078 16.5714 4.42864 14.5643 4.42864 12.4286C4.42864 10.2929 5.26078 8.28215 6.7715 6.77144C8.28578 5.26072 10.2929 4.42858 12.4286 4.42858C14.5644 4.42858 16.5751 5.25715 18.0858 6.77144C19.5965 8.28572 20.4286 10.2929 20.4286 12.4286C20.4286 14.5643 19.5965 16.575 18.0858 18.0857Z" fill="black"/>
</svg>
